<?xml version="1.0" encoding="utf-8"?>
<!-- Generator: Adobe Illustrator 19.0.0, SVG Export Plug-In . SVG Version: 6.00 Build 0)  -->
<svg version="1.1" id="Layer_1" xmlns="http://www.w3.org/2000/svg" xmlns:xlink="http://www.w3.org/1999/xlink" x="0px" y="0px"
	 viewBox="0 0 612 612" style="enable-background:new 0 0 612 612;" xml:space="preserve">
<style type="text/css">
	.st0{fill:#FFFFFF;stroke:#FFFFFF;stroke-miterlimit:10;}
	.st1{fill:none;stroke:#FFFFFF;stroke-miterlimit:10;}
</style>
<path class="st0" d="M326.4,612V375.4h-80.8v-93h80.8v-74.3c0-57.1,23.7-135.5,190.9-113.4v86.1l-61.6-0.1c0,0-31.4-1.4-32,34.1
	v66.5h92.1l-13.2,94.8H423L422.9,612"/>
<path class="st1" d="M600,612H12c-6.6,0-12-5.4-12-12V12C0,5.4,5.4,0,12,0h588c6.6,0,12,5.4,12,12v588C612,606.6,606.6,612,600,612z
	"/>
</svg>
